# xmcd
#
# Track frame offsets:
#	150
#	10809
#	21367
#	35818
#	47212
#	59521
#	73295
#	86747
#	96370
#	108834
#	119213
#	129526
#	139814
#	148923
#	160310
#	171272
#	183081
#	195538
#	207255
#	218183
#
# Disc length: 3065 seconds
#
# Revision: 0
# Processed by: cddbd v1.5.2PL0 Copyright (c) Steve Scherf et al.
# Submitted via: audiograbber 1.83.01
#
DISCID=3c0bf714
DTITLE=Various Artist - American Roadsongs - CD 7 - Leaving Tennessee
DYEAR=1900
DGENRE=Country
TTITLE0=Martin Dude - Tennessee Baby
TTITLE1=Bumps Myers - Memphis Hop
TTITLE2=Stick McGhee - Tennessee Waltz Blues
TTITLE3=Ricky Riddle - Boogie Woogie Tennessee
TTITLE4=The Kelleys - Leaving Tennessee
TTITLE5=Jimmie Rodgers - In The Hills Of Tennessee
TTITLE6=Moon Mullican - Nine Tenth Of Tennessee
TTITLE7=Texas Tyler - Ten-Ten-Tennessee
TTITLE8=Thomas Dick - Tennessee Local
TTITLE9=Bob Sandy - Music Making Mama From Memphis
TTITLE10=Gene O'Quinn - My Tennessee Talkin' Doll
TTITLE11=Jean Opal - Tennessee Courtin' Time
TTITLE12=Hoyt Scoggins - Tennessee Rock
TTITLE13=Slim Williams - Tennessee Avenue
TTITLE14=Louvin Brothers - Tennessee Waltz
TTITLE15=Long Shorty - Good Night Cincinnati, Good Mornig Tennessee
TTITLE16=York Brothers - Tennessee Tango
TTITLE17=Tommy Duncan - Chattanooga Shoe Shine Boy
TTITLE18=Tennessee Ernie Ford - Tennessee Border
TTITLE19=Zeb Turner - Chattanooga Boogie
EXTD=
EXTT0=
EXTT1=
EXTT2=
EXTT3=
EXTT4=
EXTT5=
EXTT6=
EXTT7=
EXTT8=
EXTT9=
EXTT10=
EXTT11=
EXTT12=
EXTT13=
EXTT14=
EXTT15=
EXTT16=
EXTT17=
EXTT18=
EXTT19=
PLAYORDER=
